<svg xmlns="http://www.w3.org/2000/svg" viewBox="0 0 130 130" width="130" height="130"><path d="M14 74h46l17.48 -17.48h-46z" fill="#EA7A62"/><path d="M60 74l17.48 -17.48v46l-17.48 17.48z" fill="#A9321D"/><rect x="14" y="74" width="46" height="46" fill="#CE4029"/><path d="M62 74h46l17.48 -17.48h-46z" fill="#DDEBF7"/><path d="M108 74l17.48 -17.48v46l-17.48 17.48z" fill="#4F7FAE"/><rect x="62" y="74" width="46" height="46" fill="#B9D3EC"/><path d="M38 28h46l17.48 -17.48h-46z" fill="#F6D27E"/><path d="M84 28l17.48 -17.48v46l-17.48 17.48z" fill="#B8841A"/><rect x="38" y="28" width="46" height="46" fill="#E8B23A"/>
<circle cx="37" cy="97" r="9" fill="#FFFDF8"/><path d="M76 108l9-18 9 18z" fill="#FFFDF8"/><rect x="52" y="42" width="18" height="18" rx="3" fill="#FFFDF8"/></svg>