<svg xmlns="http://www.w3.org/2000/svg" viewBox="0 0 300 150" width="300" height="150">
<path d="M0 150c40-30 70-58 128-72 50-12 78-30 92-78h30c-10 52-44 82-104 98-52 14-78 32-110 52z" fill="#E9DFCF"/>
<path d="M8 150c40-28 68-54 122-68 50-12 76-32 90-80h18c-10 50-42 78-100 94-52 14-76 32-104 54z" fill="#4A453D"/>
<path d="M50 136c10-9 22-17 36-24M110 100c14-6 28-11 42-18M170 70c12-8 22-18 30-32" stroke="#FFFDF8" stroke-width="4" stroke-linecap="round" stroke-dasharray="10 12" fill="none"/></svg>
