<svg xmlns="http://www.w3.org/2000/svg" viewBox="0 0 120 120" width="120" height="120"><g class="o-rays"><line x1="98.0" y1="60.0" x2="112.0" y2="60.0" stroke="#F6D27E" stroke-width="7" stroke-linecap="round"/><line x1="92.9" y1="79.0" x2="105.0" y2="86.0" stroke="#F6D27E" stroke-width="7" stroke-linecap="round"/><line x1="79.0" y1="92.9" x2="86.0" y2="105.0" stroke="#F6D27E" stroke-width="7" stroke-linecap="round"/><line x1="60.0" y1="98.0" x2="60.0" y2="112.0" stroke="#F6D27E" stroke-width="7" stroke-linecap="round"/><line x1="41.0" y1="92.9" x2="34.0" y2="105.0" stroke="#F6D27E" stroke-width="7" stroke-linecap="round"/><line x1="27.1" y1="79.0" x2="15.0" y2="86.0" stroke="#F6D27E" stroke-width="7" stroke-linecap="round"/><line x1="22.0" y1="60.0" x2="8.0" y2="60.0" stroke="#F6D27E" stroke-width="7" stroke-linecap="round"/><line x1="27.1" y1="41.0" x2="15.0" y2="34.0" stroke="#F6D27E" stroke-width="7" stroke-linecap="round"/><line x1="41.0" y1="27.1" x2="34.0" y2="15.0" stroke="#F6D27E" stroke-width="7" stroke-linecap="round"/><line x1="60.0" y1="22.0" x2="60.0" y2="8.0" stroke="#F6D27E" stroke-width="7" stroke-linecap="round"/><line x1="79.0" y1="27.1" x2="86.0" y2="15.0" stroke="#F6D27E" stroke-width="7" stroke-linecap="round"/><line x1="92.9" y1="41.0" x2="105.0" y2="34.0" stroke="#F6D27E" stroke-width="7" stroke-linecap="round"/></g>
<circle cx="60" cy="60" r="30" fill="#E8B23A"/>
<path d="M60 30a30 30 0 0 1 0 60 24 30 0 0 0 0-60z" fill="#B8841A" opacity=".45"/>
<circle cx="50" cy="48" r="6" fill="#FFFDF8" opacity=".35"/></svg>