<svg xmlns="http://www.w3.org/2000/svg" viewBox="0 0 120 130" width="120" height="130">
<g class="o-ears"><ellipse cx="46" cy="30" rx="10" ry="26" transform="rotate(-8 46 30)" fill="#FFFDF8"/><ellipse cx="46" cy="32" rx="5" ry="18" transform="rotate(-8 46 32)" fill="#F3C9B8"/>
<path d="M68 44c0-18 8-32 18-34 8-1 9 8 2 14-6 5-10 12-12 22z" fill="#FFFDF8"/><path d="M72 40c1-12 6-22 13-25 4 0 4 4 0 8-5 4-8 10-9 17z" fill="#F3C9B8"/></g>
<circle cx="88" cy="108" r="8" fill="#FFFDF8"/>
<ellipse cx="60" cy="102" rx="25" ry="21" fill="#FFFDF8"/><path d="M85 102a25 21 0 0 1-25 21 25 21 0 0 0 25-21z" fill="#E9DFCF"/>
<ellipse cx="48" cy="121" rx="9" ry="5" fill="#E9DFCF"/><ellipse cx="72" cy="121" rx="9" ry="5" fill="#E9DFCF"/>
<ellipse cx="60" cy="64" rx="27" ry="23" fill="#FFFDF8"/>
<path d="M56 70h8l-4 5z" fill="#E59A82"/><path d="M60 75c-1 4-5 5-7 3M60 75c1 4 5 5 7 3" stroke="#4A453D" stroke-width="1.8" fill="none" stroke-linecap="round"/><g class="o-eyes"><circle cx="49" cy="62" r="3.4" fill="#16140F"/><circle cx="47.8" cy="60.8" r="1.2" fill="#FFFDF8"/><circle cx="71" cy="62" r="3.4" fill="#16140F"/><circle cx="69.8" cy="60.8" r="1.2" fill="#FFFDF8"/></g><ellipse cx="42" cy="72" rx="5.5" ry="3.2" fill="#E59A82" opacity=".85"/><ellipse cx="78" cy="72" rx="5.5" ry="3.2" fill="#E59A82" opacity=".85"/></svg>