<svg xmlns="http://www.w3.org/2000/svg" viewBox="0 0 124 110" width="124" height="110">
<path d="M20 78c0-20 20-26 42-20 14 4 28 2 38-4 4 20-8 44-36 46-24 2-44-4-44-22z" fill="#E8B23A"/>
<path d="M30 88c8 10 40 12 60 2-10 10-22 12-32 12-14 0-24-6-28-14z" fill="#B8841A" opacity=".55"/>
<path d="M34 72c10-8 28-6 34 4-10 8-26 8-34-4z" fill="#B8841A"/>
<circle cx="80" cy="38" r="21" fill="#E8B23A"/>
<path d="M76 18c1-7 8-8 7-1-1 3-4 4-7 1z" fill="#E8B23A"/>
<path d="M97 40c9-3 18 1 19 6-5 5-14 6-20 3z" fill="#EA7A62"/><g class="o-eyes"><circle cx="86" cy="34" r="3.6" fill="#16140F"/><circle cx="84.7" cy="32.7" r="1.2" fill="#FFFDF8"/></g><ellipse cx="82" cy="46" rx="5.5" ry="3.2" fill="#E59A82" opacity=".85"/></svg>